<svg width="290" height="390" xmlns="http://www.w3.org/2000/svg" fill="#fdf9ce">
  <g id="svg_1" fill-rule="nonzero">
   <path id="svg_2" d="m138.27016,40.43984c-0.08508,0.34032 -6.96094,23.13352 -6.99961,23.41196c21.72586,-16.24219 18.40007,-16.12617 40.14914,-0.13922c-8.74758,-25.70906 -9.63703,-22.4761 12.28218,-38.22328c-27.16312,0.38672 -24.37874,2.24297 -32.56171,-23.4893l-7.95868,23.12578c-28.91882,0.7193 -27.83601,-2.07281 -4.91132,15.31406z"/>;
   <path id="svg_3" d="m283.88523,320.33141c16.84547,-5.08149 -94.78476,7.23164 -104.36765,-32.29875c3.37992,31.94296 137.1382,22.88601 88.00172,8.64703c-8.90227,-4.32352 2.91586,-4.08375 6.32672,-3.92133c12.49875,-1.96453 -16.32727,-7.19297 -8.50782,-13.68984c4.47047,-6.45821 -13.14843,-6.96094 -16.54383,-8.8868c-18.50062,-7.93547 -37.72054,-18.47742 -56.64656,-28.56305c22.36782,2.01094 40.44305,18.39235 62.64844,21.33141c2.35898,0.77344 5.80852,0.90492 2.48273,-2.08055c-20.28726,-15.85547 29.32875,5.25164 20.59665,-2.75344c-49.15969,-25.0207 22.42968,-1.12922 -38.38571,-32.95617c-7.30125,-4.64062 5.49914,-3.5114 3.80531,-7.62609c-20.27179,-15.75492 -51.24023,-12.70758 -71.26453,-31.20047c18.60891,4.81851 87.43711,35.05219 44.44172,-4.40086c-6.1875,-9.49008 21.09164,7.58742 15.0743,-1.16016c-19.33594,-32.40703 -43.89258,-20.55797 -77.10399,-47.17968c21.80321,6.28031 64.52016,23.57437 67.75313,16.14164c0.38672,-0.04641 -18.02109,-4.08375 -22.0043,-9.28125c7.36313,0.72703 10.23258,0.95132 12.61477,1.12148c2.06508,0 1.72476,-0.66515 -1.06735,-1.65515c-3.55007,-1.86399 -29.02711,-8.67797 -6.14109,-6.29579c4.31578,0.32485 1.7093,-1.99546 0.44086,-3.47273c1.63969,0.03867 1.9568,-0.17016 0,-0.71156c-1.29938,0.42539 -15.70078,-18.5625 -16.53609,-18.91828c3.16336,1.90265 7.20843,-0.66516 9.82265,0.53367c0.15469,-4.59422 -12.43687,-14.20031 -15.97148,-19.04977c-3.54235,-2.71476 -1.64742,-2.59101 1.72476,-2.32031c-0.94359,2.17336 -26.04937,-17.96695 -12.19711,-16.89188c-0.81984,-0.44085 -22.42968,-15.60796 -20.20992,-17.30179c-7.2007,6.01734 -19.66078,12.90093 -24.67265,19.97789c0.77343,0.70383 3.48047,-1.40766 4.53234,-1.42313l-2.97,2.76891c0.34031,0.59555 -8.60062,10.82812 -10.47234,12.21258c-3.58102,4.28484 3.465,-0.4718 4.2307,1.12148c-1.54688,3.6661 -8.25258,7.40953 -10.63477,7.98961c-3.09375,0.34031 2.01868,0.54141 3.36446,0.26297l-5.63836,5.94773c-4.40086,5.94 13.92187,-5.7157 6.75211,2.57555c-2.48274,1.64742 -19.93922,9.55195 -7.60289,9.05695c-4.23844,5.6461 -11.60157,10.20165 1.16789,8.30672c7.73437,-3.86718 -13.38047,8.18297 -10.67344,6.89133c12.99375,2.79211 25.52344,-16.57476 41.76562,-12.65344c-21.79546,13.21032 -44.38757,19.87735 -62.80312,35.57813c-5.04281,5.12789 4.38539,3.09375 4.64062,6.28805c0.56461,1.02093 -16.57476,18.14484 -17.51062,19.13484c2.56781,10.05469 31.76508,-16.3118 40.50492,-18.26086c0.68063,14.79586 -53.52187,37.27195 -36.80789,39.95578c1.70156,-0.2707 14.09977,-3.61195 7.73438,0.77344c-1.08282,1.31484 -23.81415,13.68984 -23.53571,15.26766c11.90321,7.78851 37.24102,-19.39008 55.1461,-13.27219c-26.93883,10.82812 -59.91047,21.5557 -78.44977,39.19781c23.20313,2.26617 -12.82359,11.80266 -13.51969,16.87641c4.28485,1.29937 28.9343,-9.58289 27.20953,-3.33352c-0.87398,1.67063 -7.54101,5.00414 -5.1975,6.69024c23.28047,-8.50782 47.79844,-16.3118 69.93422,-28.07579c-13.92187,14.46328 -29.67679,14.62571 -44.24836,25.48477c-7.06922,10.05469 -20.92922,9.81492 -31.48664,13.65891c-7.97414,6.41953 9.70664,6.58195 -12.24351,15.92507c-7.85813,6.00188 21.65625,-0.68062 8.33765,6.83719c-49.59281,18.23766 69.5243,-16.37367 84.65274,-14.15391c72.61031,-15.17484 -76.73274,22.29821 -100.7325,30.31102c-1.16789,1.22203 -12.76172,4.64063 -10.95961,7.1775c2.69156,2.45953 15.83226,-2.04961 13.70531,3.28711c-22.70812,13.31086 51.53414,-10.82813 29.66906,6.1875c-0.70382,1.06734 -6.80625,5.26711 -3.09375,5.64609c53.26664,-18.88734 13.39594,3.49594 35.57813,1.08282c20.64305,-8.50782 6.07922,2.97773 15.13617,6.28031c6.49688,2.7457 25.52344,-12.70758 29.39063,-4.23844c-0.77344,7.95094 5.86265,11.10656 12.00375,5.50688l0,36.64547c-0.64196,-9.46688 -4.1843,-6.8604 -11.09883,-5.23618c2.11148,7.11563 0.20109,14.97375 11.09883,10.15524c-4.50914,6.79851 31.61039,0 32.48437,1.54687l0,-46.15101c4.07602,1.42312 23.45836,17.09297 24.37102,8.19843c0,-1.64742 -5.73891,-14.85 -1.15243,-12.74625c4.64063,1.31485 23.79094,14.34727 25.05938,5.6461c-0.37125,-1.87946 -3.09375,-8.9332 0.91266,-7.77305c4.64062,0.98227 41.19328,18.16031 28.61718,2.53688c-3.86718,-7.1543 16.89961,2.14242 20.47289,2.04961c1.38446,0.42539 -0.89718,-0.81985 -2.83078,-1.90266c3.465,0.85078 6.52008,1.65516 7.6493,2.01094c2.9932,-0.13922 -26.25047,-11.44688 -11.78719,-10.34086c0.83531,-0.47953 31.36289,4.0064 19.43649,-0.495c0,0 -6.10243,-2.05735 -11.81039,-3.75891c38.26968,6.30352 3.90586,-2.9468 17.58796,-4.39312zm-58.44867,-53.73844l1.76344,0.2939c-0.77344,0.40219 -4.95,-0.8121 -1.76344,-0.2939zm-36.80789,-158.25305c0.12173,0.76238 0.41531,1.48708 0.85852,2.11922c-0.79664,-0.95133 -1.02867,-1.67062 -0.85852,-2.11922zm-22.94789,-23.13351c0.77344,0.17015 2.38219,2.95453 3.17109,3.31031c0,0.07734 6.62836,-0.12375 7.73438,2.32031c-7.28578,-0.26297 -10.28672,-0.98226 -10.90547,-5.63062z"/></g>
</svg>