<svg width="420" height="140" xmlns="http://www.w3.org/2000/svg">

 <g>
  <title>background</title>
  <rect fill="none" id="canvas_background" height="142" width="422" y="-1" x="-1"/>
 </g>
 <g>
  <title>Layer 1</title>
  <g id="sleigh">
   <g id="svg_1">
    <path id="svg_2" d="m72.7,89.4c0,0 8.2,20.7 18.5,18.8c10.3,-1.9 2.9,-13.4 -1.9,-14c0,0 11.6,-0.6 14.8,9.9c3.2,10.5 -10.7,21 -35.1,21.6c-24.4,0.7 -37.5,-2.5 -42,-6.7c-4.5,-4.3 -12.1,-15.5 -6.3,-30c0,0 23.9,6.4 52,0.4z" class="st13"/>
    <path id="svg_3" d="m101.2,93.7c0,0 7.8,4.6 7.5,17.1c-0.3,12.4 -17.9,19.1 -43.6,20.5c-25.6,1.5 -45.3,-7.4 -48.4,-18.8c0,0 -10.1,-3.2 -14.8,-9.5c0,0 -0.8,15.1 11.4,25.9c0,0 26.3,11.1 55.6,7.8c29.3,-3.3 46,-8.5 45.2,-27.3c0,0 -0.6,-12.8 -8.4,-16.5c0,0 5.8,1.9 6.6,-2.5c0.8,-4.4 -4.3,-7.1 -8.8,-6.1c-4.3,1 -6.3,6.1 -2.3,9.4z" class="st13"/>
    <path id="svg_4" d="m95.1,119.3c0,0 1.7,0.7 2.1,3.2c0.4,2.5 -3.9,5 -5.1,3.8c-1.3,-1.2 -1,-3.3 0.8,-3.6c0,0 -0.4,-1.4 -2.5,-1.8c-2.1,-0.4 -0.7,-2 0,-2.4c0.6,-0.6 4.7,0.8 4.7,0.8z" class="st13"/>
    <path id="svg_5" d="m44.9,125c0,0 0.7,1.7 -0.8,3.7c-1.5,2 -6.3,0.8 -6.3,-1c0,-1.8 1.7,-3.1 3.2,-2c0,0 0.8,-1.3 -0.5,-3.1c-1.2,-1.8 1,-1.9 1.7,-1.7c0.8,0.3 2.7,4.1 2.7,4.1z" class="st13"/>
    <path id="svg_6" d="m72.1,69.7l1.2,1.8c0,0 -0.6,1.3 -0.1,1.7c0.5,0.4 2.1,0.7 2.6,0.3c0,0 2.6,2 0.5,3.4c0,0 0,0.4 0.1,0.7c0,0 -2.9,0.4 -4.6,-0.8c0,0 -0.5,2.2 0.3,3.4c0.8,1.2 3.4,0.5 3.4,0.5l0.1,1.5c0,0 0.8,0.3 1.7,1.9c0,0 3.2,0.6 5.5,-3.2c0,0 0.1,-2.3 1.9,-3.4c1.8,-1.1 2.9,-0.6 2.9,-0.6s1.4,-1.6 2.8,-1.7c1.4,-0.2 3.8,2.8 3.8,5c0.1,2.3 -3.6,3.2 -3.6,3.2s1.1,2.6 1.2,4c0.1,1.4 -3.1,2.8 -4.1,2.8c0,0 -0.5,-0.3 -0.6,-0.5c0,0 -2.7,2 -6.8,2.5c0,0 1.4,1.8 1.8,4.2c0,0 10.7,-1 14.7,9.7c0,0 -2.9,2.5 -3.1,2.6c-0.2,0.1 -4.3,0.2 -4.6,0.3c-0.3,0 -13.4,-6.2 -13.6,-6.2c-0.2,0 -4.2,-3.5 -4.2,-3.5l-13.3,-6.4l-0.8,-1.7c0,0 -0.1,-3.3 0.5,-5.1c0,0 -2.2,0.2 -2.6,-1.7c0,0 1.1,-0.3 1.7,-1.7c0,0 -2.9,-1.2 -3.2,-3.8c0,0 1.6,0.8 2.5,0.2c0.9,-0.7 0.8,-3.1 1.7,-3.8c0,0 -1,-0.2 -1.3,-1.2c-0.3,-1 0.2,-2.3 -2.6,-2.6c-2.8,-0.3 -4.7,0.1 -6,-2c0,0 -0.9,-1.3 -1,-1.5c-0.1,-0.2 -0.2,-1 -0.1,-1c0.1,0 1,0 1.2,-0.2c0.2,-0.1 2,0.9 4,-0.3c2,-1.2 10.8,-6.4 16.6,-0.7c0,0 1.8,-0.5 2.9,0.8c1.1,1.3 1.1,2.5 0.6,3.1z" class="st13"/>
    <circle id="svg_7" r="3.3" cy="66.8" cx="46.1" class="st13"/>
    <path id="svg_8" d="m216.4,66.1c1.1,-1.7 0.8,-4.1 0.8,-4.1c-1.1,-0.4 -6.5,-1.9 -6.5,-1.9l-3,-4.2c-0.5,-0.4 -1.6,-1.3 -3.8,-1.9l-0.2,-3.9l2.2,-2.4c0,0 -0.5,-1.3 -1.7,-1.8l-0.4,0.3c-0.2,-0.2 -0.5,-0.5 -0.9,-0.6l-2.2,2.1c-1.3,-0.8 -3.3,-2.8 -3.3,-8c0,0 -0.6,-0.7 -1.5,-0.5c-0.4,-0.3 -1.3,-0.7 -2.3,0.6c0,0 -0.2,2.3 0.4,4.3c-1.7,-2 -3.6,-5.8 -2.2,-11.7c0,0 -0.7,-0.9 -1.9,-0.8c-0.5,-0.3 -1.2,-0.5 -2,0c0,0 -0.7,5.1 0.7,9.4c-1.2,-2 -2.3,-5.1 -2.4,-9.9c0,0 -0.6,-0.2 -1.3,-0.1c0,-0.1 0,-0.1 0,-0.2c0,0 -1.4,-0.4 -2.5,0.3c0,0 0,16.1 16.3,19c0.3,0.1 0.6,0.1 1,0.2l0.2,3.2c-3.3,0 -4.1,0.7 -4.1,0.7c-2.3,3.8 -8.9,5.3 -8.9,5.3c1.5,3.7 5.5,1.9 5.5,1.9c-1,11.7 -11.5,18.1 -18.9,20c-7.4,1.9 -12.1,-1.2 -20.1,-1.8c-2.5,-0.2 -4.5,0.3 -6.1,1.3c-6.9,0.7 -9.9,-3 -9.9,-3s-1.4,1.8 0,4.5c1,2 4.8,1.7 6.7,1.4c-1.5,2.2 -2.3,4.9 -2.5,7.4c-0.4,5.5 -6.5,6.3 -8,6.9c-1.6,0.6 -1.8,2.1 -1.8,2.1c-1,4.2 -5.9,9.4 -5.9,9.4l-3.7,-0.8c-2.8,3.7 -1.8,7.2 -1.8,7.2s3.6,0.1 5.9,-1c2.2,-1.1 2,-2.2 4.4,-4.3c2.5,-2.1 5.7,-5.9 5.7,-5.9c6.2,-0.1 9.9,-2.8 9.9,-2.8c-1.9,3 -7.1,4.3 -8,5.6c-0.9,1.3 -0.7,3.6 -1.1,6.3c-0.4,2.7 -1.8,3.8 -2,4.7c-0.2,0.9 -0.1,2 -0.1,2l-2.4,1.4c0.4,4.5 3.3,5.7 3.3,5.7c3.6,-2 4.7,-7.5 4.7,-7.5c0.8,-0.6 1,-1.2 1,-1.2c0,-3.4 2.8,-9.2 2.8,-9.2s3.9,-0.1 8.8,-2c4.9,-1.9 8.3,-8.6 8.3,-8.6s7.6,3.2 16.4,1.7c1.2,-0.2 2.3,-0.5 3.4,-0.8c-0.4,0.6 -0.8,1.2 -1.2,1.6c-0.7,0.7 -2.9,1.1 -2.9,1.1c-4.1,0.5 -4.9,1.6 -4.9,1.6c0.6,4.1 3.2,5.1 3.2,5.1c0.7,-1.9 4.4,-4.1 5.2,-3.9c0.8,0.2 3.4,-1.1 3.4,-1.1s5.7,-6.6 5.8,-7.5c0,-0.4 -0.2,-0.9 -0.4,-1.3c0.7,-0.6 1,-1 1,-1c4,2.2 9.1,1 9.9,1.1c0.8,0.1 0.4,1.1 0.2,1.8c-0.2,0.7 -2.9,9.2 -2.9,9.2l-4.2,2.3c-0.2,5.1 4,5.8 4,5.8s4.2,-4.9 4.7,-5.1c0.5,-0.3 1.4,-1.5 1.2,-1.9c-0.2,-0.4 0.2,-3.1 1.2,-5.7s4,-5.1 4.4,-6.7c0.4,-1.6 0.6,-3 -0.6,-4c-1.2,-1 -2.8,-0.5 -6.7,-1.3s-5.8,-4.3 -5.8,-4.3c5.4,-7.1 7.9,-18.5 7.9,-18.5c2.4,-0.3 12.5,-1.3 12.5,-1.3z" class="st13"/>
    <path id="svg_9" d="m316.5,52.8c1.1,-1.7 0.8,-4.1 0.8,-4.1c-1.1,-0.4 -6.5,-1.9 -6.5,-1.9l-3,-4.2c-0.5,-0.4 -1.6,-1.3 -3.8,-1.9l-0.2,-3.9l2.2,-2.4c0,0 -0.5,-1.3 -1.7,-1.8l-0.4,0.3c-0.2,-0.2 -0.5,-0.5 -0.9,-0.6l-2.2,2.1c-1.3,-0.8 -3.3,-2.8 -3.3,-8c0,0 -0.6,-0.7 -1.5,-0.5c-0.4,-0.3 -1.3,-0.7 -2.3,0.6c0,0 -0.2,2.3 0.4,4.3c-1.7,-2 -3.6,-5.8 -2.2,-11.7c0,0 -0.7,-0.9 -1.9,-0.8c-0.5,-0.3 -1.2,-0.5 -2,0c0,0 -0.7,5.1 0.7,9.4c-1.2,-2 -2.3,-5.1 -2.4,-9.9c0,0 -0.6,-0.2 -1.3,-0.1c0,-0.1 0,-0.1 0,-0.2c0,0 -1.4,-0.4 -2.5,0.3c0,0 0,16.1 16.3,19c0.3,0.1 0.6,0.1 1,0.2l0.2,3.2c-3.3,0 -4.1,0.7 -4.1,0.7c-2.3,3.8 -8.9,5.3 -8.9,5.3c1.5,3.7 5.5,1.9 5.5,1.9c-1,11.7 -11.5,18.1 -18.9,20c-7.4,1.9 -12.1,-1.2 -20.1,-1.8c-2.5,-0.2 -4.5,0.3 -6.1,1.3c-6.9,0.7 -9.9,-3 -9.9,-3s-1.4,1.8 0,4.5c1,2 4.8,1.7 6.7,1.4c-1.5,2.2 -2.3,4.9 -2.5,7.4c-0.4,5.5 -6.5,6.3 -8,6.9c-1.6,0.6 -1.8,2.1 -1.8,2.1c-1,4.2 -5.9,9.4 -5.9,9.4l-3.7,-0.8c-2.8,3.7 -1.8,7.2 -1.8,7.2s3.6,0.1 5.9,-1c2.2,-1.1 2,-2.2 4.4,-4.3c2.5,-2.1 5.7,-5.9 5.7,-5.9c6.2,-0.1 9.9,-2.8 9.9,-2.8c-1.9,3 -7.1,4.3 -8,5.6c-0.9,1.3 -0.7,3.6 -1.1,6.3c-0.4,2.7 -1.8,3.8 -2,4.7c-0.2,0.9 -0.1,2 -0.1,2l-2.4,1.4c0.4,4.5 3.3,5.7 3.3,5.7c3.6,-2 4.7,-7.5 4.7,-7.5c0.8,-0.6 1,-1.2 1,-1.2c0,-3.4 2.8,-9.2 2.8,-9.2s3.9,-0.1 8.8,-2c4.9,-1.9 8.3,-8.6 8.3,-8.6s7.6,3.2 16.4,1.7c1.2,-0.2 2.3,-0.5 3.4,-0.8c-0.4,0.6 -0.8,1.2 -1.2,1.6c-0.7,0.7 -2.9,1.1 -2.9,1.1c-4.1,0.5 -4.9,1.6 -4.9,1.6c0.6,4.1 3.2,5.1 3.2,5.1c0.7,-1.9 4.4,-4.1 5.2,-3.9c0.8,0.2 3.4,-1.1 3.4,-1.1s5.7,-6.6 5.8,-7.5c0,-0.4 -0.2,-0.9 -0.4,-1.3c0.7,-0.6 1,-1 1,-1c4,2.2 9.1,1 9.9,1.1c0.8,0.1 0.4,1.1 0.2,1.8c-0.2,0.7 -2.9,9.2 -2.9,9.2l-4.2,2.3c-0.2,5.1 4,5.8 4,5.8s4.2,-4.9 4.7,-5.1c0.5,-0.3 1.4,-1.5 1.2,-1.9c-0.2,-0.4 0.2,-3.1 1.2,-5.7c1,-2.7 4,-5.1 4.4,-6.7c0.4,-1.6 0.6,-3 -0.6,-4c-1.2,-1 -2.8,-0.5 -6.7,-1.3c-3.9,-0.8 -5.8,-4.3 -5.8,-4.3c5.4,-7.1 7.9,-18.5 7.9,-18.5c2.5,-0.3 12.5,-1.3 12.5,-1.3z" class="st13"/>
    <path id="svg_10" d="m414.1,35.9c1.1,-1.7 0.8,-4.1 0.8,-4.1c-1.1,-0.4 -6.5,-1.9 -6.5,-1.9l-3,-4.2c-0.5,-0.4 -1.6,-1.3 -3.8,-1.9l-0.2,-3.9l2.2,-2.4c0,0 -0.5,-1.3 -1.7,-1.8l-0.4,0.3c-0.2,-0.2 -0.5,-0.5 -0.9,-0.6l-2.2,2.1c-1.3,-0.8 -3.3,-2.8 -3.3,-8c0,0 -0.6,-0.7 -1.5,-0.5c-0.4,-0.3 -1.3,-0.7 -2.3,0.6c0,0 -0.2,2.3 0.4,4.3c-1.7,-2 -3.6,-5.8 -2.3,-11.7c0,0 -0.7,-0.9 -1.9,-0.8c-0.5,-0.3 -1.2,-0.5 -2,0c0,0 -0.7,5.1 0.7,9.4c-1.2,-2 -2.3,-5.1 -2.4,-9.9c0,0 -0.6,-0.2 -1.3,-0.1c0,-0.1 0,-0.1 0,-0.2c0,0 -1.4,-0.4 -2.5,0.3c0,0 0,16.1 16.3,19c0.3,0.1 0.6,0.1 1,0.2l0.2,3.2c-3.3,0 -4.1,0.7 -4.1,0.7c-2.3,3.8 -8.9,5.3 -8.9,5.3c1.5,3.7 5.5,1.9 5.5,1.9c-1,11.7 -11.5,18.1 -18.9,20c-7.4,1.9 -12.1,-1.2 -20.1,-1.8c-2.5,-0.2 -4.5,0.3 -6.1,1.3c-6.9,0.7 -9.9,-3 -9.9,-3s-1.4,1.8 0,4.5c1,2 4.8,1.7 6.7,1.4c-1.5,2.2 -2.3,4.9 -2.5,7.4c-0.4,5.5 -6.5,6.3 -8,6.9c-1.6,0.6 -1.8,2.1 -1.8,2.1c-1,4.2 -5.9,9.4 -5.9,9.4l-3.7,-0.8c-2.8,3.7 -1.8,7.2 -1.8,7.2s3.6,0.1 5.9,-1c2.2,-1.1 2,-2.2 4.4,-4.3c2.5,-2.1 5.7,-5.9 5.7,-5.9c6.2,-0.1 9.9,-2.8 9.9,-2.8c-1.9,3 -7.1,4.3 -8,5.6c-0.9,1.3 -0.7,3.6 -1.1,6.3c-0.4,2.7 -1.8,3.8 -2,4.7c-0.2,0.9 -0.1,2 -0.1,2l-2.4,1.4c0.4,4.5 3.3,5.7 3.3,5.7c3.6,-2 4.7,-7.5 4.7,-7.5c0.8,-0.6 1,-1.2 1,-1.2c0,-3.4 2.8,-9.2 2.8,-9.2s3.9,-0.1 8.8,-2c4.9,-1.9 8.3,-8.6 8.3,-8.6s7.6,3.2 16.4,1.7c1.2,-0.2 2.3,-0.5 3.4,-0.8c-0.4,0.6 -0.8,1.2 -1.2,1.6c-0.7,0.7 -2.9,1.1 -2.9,1.1c-4.1,0.5 -4.9,1.6 -4.9,1.6c0.6,4.1 3.2,5.1 3.2,5.1c0.7,-1.9 4.4,-4.1 5.2,-3.9c0.8,0.2 3.4,-1.1 3.4,-1.1s5.7,-6.6 5.8,-7.5c0,-0.4 -0.2,-0.9 -0.4,-1.3c0.7,-0.6 1,-1 1,-1c4,2.2 9.1,1 9.9,1.1c0.8,0.1 0.4,1.1 0.2,1.8c-0.2,0.7 -2.9,9.2 -2.9,9.2l-4.2,2.3c-0.2,5.1 4,5.8 4,5.8s4.2,-4.9 4.7,-5.1c0.5,-0.3 1.4,-1.5 1.2,-1.9c-0.2,-0.4 0.2,-3.1 1.2,-5.7c1,-2.7 4,-5.1 4.4,-6.7c0.4,-1.6 0.6,-3 -0.6,-4c-1.2,-1 -2.8,-0.5 -6.7,-1.3c-3.9,-0.8 -5.8,-4.3 -5.8,-4.3c5.4,-7.1 7.9,-18.5 7.9,-18.5c2.6,-0.2 12.6,-1.3 12.6,-1.3z" class="st13"/>
    <path id="svg_11" d="m91.1,76.5c0,0 16.8,8.4 41.1,4.6c0,0 -20.1,4.7 -41,-3.4l-0.1,-1.2z" class="st13"/>
    <path id="svg_12" d="m203.2,75.5c0,0 21.7,1 31.8,-6.4c0,0 -9,9.1 -31.8,6.4z" class="st13"/>
    <path id="svg_13" d="m302.8,62.3c0,0 21.7,1 31.8,-6.4c0.1,0 -8.9,9 -31.8,6.4z" class="st13"/>
   </g>
  </g>
 </g>
</svg>