<svg width="280" height="280" xmlns="http://www.w3.org/2000/svg">

 <g>
  <title>background</title>
  <rect fill="none" id="canvas_background" height="282" width="282" y="-1" x="-1"/>
 </g>
 <g>
  <title>Layer 1</title>
  <g id="moon">
   <g id="svg_1">
    <circle id="svg_2" fill="#FFFAD7" r="132" cy="139.3" cx="139.8" class="st9"/>
    <path id="svg_3" fill="#F2E69E" d="m259.5,176.1c0,0 -5.1,22.8 -23.5,42.2c0,0 1.5,-9.3 -5.8,-10.3s-24,8 -22.3,16c0,0 -12,-2.3 -18,4c-6,6.3 0,11 0,11s-19,5.7 -12,17c0,0 -24.3,9 -62.7,1.3c0,0 38.3,3.7 55.2,-4.7c0,0 -2.5,-13 9.5,-16c0,0 -2,-19.5 22.3,-18.4c0,0 5,-11.9 19,-15.6c14,-3.7 17,3 17,3s15.4,-10.2 21.3,-29.5z" class="st10"/>
    <path id="svg_4" fill="#F2E69E" d="m222.2,231.6c0,0 2.4,-5.6 -0.5,-7.6c-2.9,-2 -12.4,-0.8 -17,5.2c-4.6,6 3.2,6.7 3.2,6.7s-2.9,-3.2 0.4,-5.6c3.3,-2.4 13.8,-7.4 13.9,1.3z" class="st10"/>
    <path id="svg_5" fill="#F2E69E" d="m198.9,240.2c0,0 -3.4,-2.6 -9,2.4c-5.6,5 0.1,9.1 0.1,9.1s-3.4,-6.6 8.9,-11.5z" class="st10"/>
    <path id="svg_6" fill="#F2E69E" d="m166.6,215.7c0,0 -11,0.3 -14,8.5s7,9.1 12,9.8c0,0 -11,-3.8 -6.8,-9.2c4.3,-5.4 17,-7.4 20.3,-3.7c0,0.1 -3,-5.6 -11.5,-5.4z" class="st10"/>
    <path id="svg_7" fill="#F2E69E" d="m131.5,237.5c0,0 -15.4,-1.7 -19.6,6c-4.3,7.7 9.3,7.2 9.3,7.2s-15.6,1.3 -13.1,-7.2c2.5,-8.5 17,-8.8 23.4,-6z" class="st10"/>
    <path id="svg_8" fill="#F2E69E" d="m241.1,184.2c0,0 -3,-5.4 -11.2,-3.3s-12.3,7.1 -12.3,9.6c0,0 1,-10.8 11.7,-13.3c10.8,-2.5 11.8,7 11.8,7z" class="st10"/>
    <path id="svg_9" fill="#FFFFFF" d="m89.9,27.7c0,0 5.4,8.3 -2.6,18.3c-8,10 -27.5,8 -28.9,2c0,0 -11.8,8.7 -25.4,32c0,0 14.9,-16.7 25.4,-23l-1.9,15.3l11.1,-12.1c0,0 1,13.1 1.7,12.1s6.7,-12.1 6.7,-12.1l11.4,7.4l0,-12c0,0 21.3,11.7 27.6,20.3c0,0 -12.4,-18.7 -20,-24.3l14.7,2.2l-11.5,-10.8c0,0 31.3,-3.7 48.7,0c0,0 -36.1,-7.3 -47.4,-7.3l18.4,-8l-10,-1.7c0,0 8.9,-4.3 32,-5c-0.1,0 -30.4,-2 -50,6.7z" class="st6"/>
   </g>
  </g>
 </g>
</svg>