<svg width="1000" height="450" xmlns="http://www.w3.org/2000/svg">
 <g>
  <title>background</title>
  <rect fill="none" id="canvas_background" height="452" width="1002" y="-1" x="-1"/>
 </g>

 <g>
  <title>Layer 1</title>
  <g id="svg_4" stroke="null">
   <g id="svg_5" stroke="null">
    <polygon class="st6" points="385.4517822265625,399.5999755859375 375.29998779296875,333.18603515625 423.0448303222656,268.89996337890625 467.29998779296875,338.337890625 456.196533203125,399.5999755859375 " id="svg_6" stroke="null" fill="#fdf9ce"/>
   </g>
   <g id="svg_7" stroke="null">
    <polygon class="st6" points="444.61724853515625,307.0908203125 447.7896728515625,288.0513916015625 463.6517333984375,289.73138427734375 456.0379638671875,324.4503173828125 444.61724853515625,317.05853271484375 " id="svg_8" stroke="null" fill="#fdf9ce"/>
   </g>
   <g id="svg_9" stroke="null">
    <rect x="392.09894" y="411.2898" transform="matrix(1.5854138316069915,-0.03483507628751993,0.04933690464647762,1.1194056896567346,-246.25180099410852,-92.34002753694426) " class="st0" width="9.5" height="16" id="svg_10" stroke="null" fill="#fdf9ce"/>
   </g>
   <g id="svg_11" stroke="null">
    <rect x="188.58176" y="699.89358" transform="matrix(-1.5854138316069915,-0.03483177238878608,0.04933222533601915,-1.1194056896567346,708.3346704649507,1162.4605521988117) " class="st0" width="9.5" height="16" id="svg_12" stroke="null" fill="#fdf9ce"/>
   </g>
   <g id="svg_13" stroke="null">
    <g id="svg_14" stroke="null">
     <path class="st0" d="m414.63794,306.86685c0,0 1.26897,-4.36787 8.24828,-4.36787c6.82069,0 6.97931,4.36787 6.97931,4.36787l0,16.79949l-15.22759,0l0,-16.79949z" id="svg_15" stroke="null" fill="#fdf9ce"/>
    </g>
    <g id="svg_16" stroke="null">
     <rect x="421.93449" y="302.49898" class="st6" width="1.42759" height="21.27935" id="svg_17" stroke="null" fill="#fdf9ce"/>
    </g>
    <g id="svg_18" stroke="null">
     <rect x="414.63794" y="313.13865" class="st6" width="15.22759" height="1.00797" id="svg_19" stroke="null" fill="#fdf9ce"/>
    </g>
   </g>
  </g>
  <g id="svg_1" fill-rule="nonzero">
   <path id="svg_2" d="m139.27016,52.43984c-0.08508,0.34032 -6.96094,23.13352 -6.99961,23.41196c21.72586,-16.24219 18.40007,-16.12617 40.14914,-0.13922c-8.74758,-25.70906 -9.63703,-22.4761 12.28218,-38.22328c-27.16312,0.38672 -24.37874,2.24297 -32.56171,-23.4893l-7.95868,23.12578c-28.91882,0.7193 -27.83601,-2.07281 -4.91132,15.31406z" fill="#fdf9ce"/>;
   <path id="svg_3" d="m284.88523,332.33141c16.84547,-5.08149 -94.78476,7.23164 -104.36765,-32.29875c3.37992,31.94296 137.1382,22.88601 88.00172,8.64703c-8.90227,-4.32352 2.91586,-4.08375 6.32672,-3.92133c12.49875,-1.96453 -16.32727,-7.19297 -8.50782,-13.68984c4.47047,-6.45821 -13.14843,-6.96094 -16.54383,-8.8868c-18.50062,-7.93547 -37.72054,-18.47742 -56.64656,-28.56305c22.36782,2.01094 40.44305,18.39235 62.64844,21.33141c2.35898,0.77344 5.80852,0.90492 2.48273,-2.08055c-20.28726,-15.85547 29.32875,5.25164 20.59665,-2.75344c-49.15969,-25.0207 22.42968,-1.12922 -38.38571,-32.95617c-7.30125,-4.64062 5.49914,-3.5114 3.80531,-7.62609c-20.27179,-15.75492 -51.24023,-12.70758 -71.26453,-31.20047c18.60891,4.81851 87.43711,35.05219 44.44172,-4.40086c-6.1875,-9.49008 21.09164,7.58742 15.0743,-1.16016c-19.33594,-32.40703 -43.89258,-20.55797 -77.10399,-47.17968c21.80321,6.28031 64.52016,23.57437 67.75313,16.14164c0.38672,-0.04641 -18.02109,-4.08375 -22.0043,-9.28125c7.36313,0.72703 10.23258,0.95132 12.61477,1.12148c2.06508,0 1.72476,-0.66515 -1.06735,-1.65515c-3.55007,-1.86399 -29.02711,-8.67797 -6.14109,-6.29579c4.31578,0.32485 1.7093,-1.99546 0.44086,-3.47273c1.63969,0.03867 1.9568,-0.17016 0,-0.71156c-1.29938,0.42539 -15.70078,-18.5625 -16.53609,-18.91828c3.16336,1.90265 7.20843,-0.66516 9.82265,0.53367c0.15469,-4.59422 -12.43687,-14.20031 -15.97148,-19.04977c-3.54235,-2.71476 -1.64742,-2.59101 1.72476,-2.32031c-0.94359,2.17336 -26.04937,-17.96695 -12.19711,-16.89188c-0.81984,-0.44085 -22.42968,-15.60796 -20.20992,-17.30179c-7.2007,6.01734 -19.66078,12.90093 -24.67265,19.97789c0.77343,0.70383 3.48047,-1.40766 4.53234,-1.42313l-2.97,2.76891c0.34031,0.59555 -8.60062,10.82812 -10.47234,12.21258c-3.58102,4.28484 3.465,-0.4718 4.2307,1.12148c-1.54688,3.6661 -8.25258,7.40953 -10.63477,7.98961c-3.09375,0.34031 2.01868,0.54141 3.36446,0.26297l-5.63836,5.94773c-4.40086,5.94 13.92187,-5.7157 6.75211,2.57555c-2.48274,1.64742 -19.93922,9.55195 -7.60289,9.05695c-4.23844,5.6461 -11.60157,10.20165 1.16789,8.30672c7.73437,-3.86718 -13.38047,8.18297 -10.67344,6.89133c12.99375,2.79211 25.52344,-16.57476 41.76562,-12.65344c-21.79546,13.21032 -44.38757,19.87735 -62.80312,35.57813c-5.04281,5.12789 4.38539,3.09375 4.64062,6.28805c0.56461,1.02093 -16.57476,18.14484 -17.51062,19.13484c2.56781,10.05469 31.76508,-16.3118 40.50492,-18.26086c0.68063,14.79586 -53.52187,37.27195 -36.80789,39.95578c1.70156,-0.2707 14.09977,-3.61195 7.73438,0.77344c-1.08282,1.31484 -23.81415,13.68984 -23.53571,15.26766c11.90321,7.78851 37.24102,-19.39008 55.1461,-13.27219c-26.93883,10.82812 -59.91047,21.5557 -78.44977,39.19781c23.20313,2.26617 -12.82359,11.80266 -13.51969,16.87641c4.28485,1.29937 28.9343,-9.58289 27.20953,-3.33352c-0.87398,1.67063 -7.54101,5.00414 -5.1975,6.69024c23.28047,-8.50782 47.79844,-16.3118 69.93422,-28.07579c-13.92187,14.46328 -29.67679,14.62571 -44.24836,25.48477c-7.06922,10.05469 -20.92922,9.81492 -31.48664,13.65891c-7.97414,6.41953 9.70664,6.58195 -12.24351,15.92507c-7.85813,6.00188 21.65625,-0.68062 8.33765,6.83719c-49.59281,18.23766 69.5243,-16.37367 84.65274,-14.15391c72.61031,-15.17484 -76.73274,22.29821 -100.7325,30.31102c-1.16789,1.22203 -12.76172,4.64063 -10.95961,7.1775c2.69156,2.45953 15.83226,-2.04961 13.70531,3.28711c-22.70812,13.31086 51.53414,-10.82813 29.66906,6.1875c-0.70382,1.06734 -6.80625,5.26711 -3.09375,5.64609c53.26664,-18.88734 13.39594,3.49594 35.57813,1.08282c20.64305,-8.50782 6.07922,2.97773 15.13617,6.28031c6.49688,2.7457 25.52344,-12.70758 29.39063,-4.23844c-0.77344,7.95094 5.86265,11.10656 12.00375,5.50688l0,36.64547c-0.64196,-9.46688 -4.1843,-6.8604 -11.09883,-5.23618c2.11148,7.11563 0.20109,14.97375 11.09883,10.15524c-4.50914,6.79851 31.61039,0 32.48437,1.54687l0,-46.15101c4.07602,1.42312 23.45836,17.09297 24.37102,8.19843c0,-1.64742 -5.73891,-14.85 -1.15243,-12.74625c4.64063,1.31485 23.79094,14.34727 25.05938,5.6461c-0.37125,-1.87946 -3.09375,-8.9332 0.91266,-7.77305c4.64062,0.98227 41.19328,18.16031 28.61718,2.53688c-3.86718,-7.1543 16.89961,2.14242 20.47289,2.04961c1.38446,0.42539 -0.89718,-0.81985 -2.83078,-1.90266c3.465,0.85078 6.52008,1.65516 7.6493,2.01094c2.9932,-0.13922 -26.25047,-11.44688 -11.78719,-10.34086c0.83531,-0.47953 31.36289,4.0064 19.43649,-0.495c0,0 -6.10243,-2.05735 -11.81039,-3.75891c38.26968,6.30352 3.90586,-2.9468 17.58796,-4.39312zm-58.44867,-53.73844l1.76344,0.2939c-0.77344,0.40219 -4.95,-0.8121 -1.76344,-0.2939zm-36.80789,-158.25305c0.12173,0.76238 0.41531,1.48708 0.85852,2.11922c-0.79664,-0.95133 -1.02867,-1.67062 -0.85852,-2.11922zm-22.94789,-23.13351c0.77344,0.17015 2.38219,2.95453 3.17109,3.31031c0,0.07734 6.62836,-0.12375 7.73438,2.32031c-7.28578,-0.26297 -10.28672,-0.98226 -10.90547,-5.63062z" fill="#fdf9ce"/></g>
  <g id="svg_20" stroke="null">
   <g id="svg_21" stroke="null">
    <polygon class="st6" points="745.5543823242188,429.29998779296875 744.0999755859375,394 774.7000122070312,394 772.4312133789062,429.29998779296875 " id="svg_22" stroke="null" fill="#fdf9ce"/>
   </g>
   <g id="svg_23" stroke="null">
    <g id="svg_24" stroke="null">
     <g id="svg_25" stroke="null">
      <rect x="749.62661" y="401.19821" class="st0" width="6.69012" height="6.62235" id="svg_26" stroke="null" fill="#fdf9ce"/>
     </g>
     <g id="svg_27" stroke="null">
      <rect x="752.76805" y="401.19821" class="st6" width="0.40722" height="6.62235" id="svg_28" stroke="null" fill="#fdf9ce"/>
     </g>
     <g id="svg_29" stroke="null">
      <rect x="749.62661" y="404.30783" class="st6" width="6.69012" height="0.4031" id="svg_30" stroke="null" fill="#fdf9ce"/>
     </g>
    </g>
    <g id="svg_31" stroke="null">
     <g id="svg_32" stroke="null">
      <rect x="749.62661" y="412.13948" class="st0" width="6.69012" height="6.62235" id="svg_33" stroke="null" fill="#fdf9ce"/>
     </g>
     <g id="svg_34" stroke="null">
      <rect x="752.76805" y="412.13948" class="st6" width="0.40722" height="6.62235" id="svg_35" stroke="null" fill="#fdf9ce"/>
     </g>
     <g id="svg_36" stroke="null">
      <rect x="749.62661" y="415.2491" class="st6" width="6.69012" height="0.4031" id="svg_37" stroke="null" fill="#fdf9ce"/>
     </g>
    </g>
    <g id="svg_38" stroke="null">
     <g id="svg_39" stroke="null">
      <rect x="762.71597" y="412.13948" class="st0" width="6.69012" height="6.62235" id="svg_40" stroke="null" fill="#fdf9ce"/>
     </g>
     <g id="svg_41" stroke="null">
      <rect x="765.85741" y="412.13948" class="st6" width="0.40722" height="6.62235" id="svg_42" stroke="null" fill="#fdf9ce"/>
     </g>
     <g id="svg_43" stroke="null">
      <rect x="762.71597" y="415.2491" class="st6" width="6.69012" height="0.4031" id="svg_44" stroke="null" fill="#fdf9ce"/>
     </g>
    </g>
    <g id="svg_45" stroke="null">
     <g id="svg_46" stroke="null">
      <rect x="762.71597" y="401.19821" class="st0" width="6.69012" height="6.62235" id="svg_47" stroke="null" fill="#fdf9ce"/>
     </g>
     <g id="svg_48" stroke="null">
      <rect x="765.85741" y="401.19821" class="st6" width="0.40722" height="6.62235" id="svg_49" stroke="null" fill="#fdf9ce"/>
     </g>
     <g id="svg_50" stroke="null">
      <rect x="762.71597" y="404.30783" class="st6" width="6.69012" height="0.4031" id="svg_51" stroke="null" fill="#fdf9ce"/>
     </g>
    </g>
   </g>
  </g>
  <g id="svg_52">
   <g id="svg_53">
    <polygon class="st6" points="710.4000244140625,385.5 696.8999633789062,385.5 696.8999633789062,374.20001220703125 686.5,374.20001220703125 686.5,385.5 677.0999755859375,385.5 643.8999633789062,385.5 631.7000122070312,409.29998779296875 637.7999877929688,409.29998779296875 637.7999877929688,436.9000244140625 677.0999755859375,436.9000244140625 716.4000244140625,436.9000244140625 716.4000244140625,409.29998779296875 722.5,409.29998779296875 " id="svg_54" fill="#fdf9ce"/>
   </g>
   <g id="svg_55">
    <g id="svg_56">
     <rect x="651.4" y="409.2" class="st0" width="14.3" height="14.3" id="svg_57" fill="#fdf9ce"/>
    </g>
    <g id="svg_58">
     <rect x="658.1" y="409.2" class="st6" width="0.9" height="14.3" id="svg_59" fill="#fdf9ce"/>
    </g>
    <g id="svg_60">
     <rect x="651.4" y="415.9" class="st6" width="14.3" height="0.9" id="svg_61" fill="#fdf9ce"/>
    </g>
   </g>
   <g id="svg_62">
    <g id="svg_63">
     <rect x="685.5" y="409.2" class="st0" width="14.3" height="14.3" id="svg_64" fill="#fdf9ce"/>
    </g>
    <g id="svg_65">
     <rect x="692.2" y="409.2" class="st6" width="0.9" height="14.3" id="svg_66" fill="#fdf9ce"/>
    </g>
    <g id="svg_67">
     <rect x="685.5" y="415.9" class="st6" width="14.3" height="0.9" id="svg_68" fill="#fdf9ce"/>
    </g>
   </g>
  </g>
  <path class="st6" d="m519,366.17628l-8.14622,-13.74604l5.81873,2.58213l-7.17644,-12.8347l3.6852,1.74673l-9.89184,-16.02439l-10.76465,16.25223l5.43082,-2.05051l-9.40695,12.91065l6.30363,-3.11374l-7.95227,14.04982l12.89819,-3.41752c0,0 0.09698,0 0.19396,0.07594l0,8.88556c0,0 2.32749,1.36701 4.84894,0l0,-6.98694c2.81239,1.06323 5.72175,2.2024 5.91571,2.2024c0.38792,0.07594 -1.3577,-3.34158 -1.3577,-3.34158l9.60091,2.80996l-0.00002,0z" id="svg_69" stroke="null" fill="#fdf9ce"/>
  <path class="st6" d="m39,408.3l-8.4,-18.1l6,3.4l-7.4,-16.9l3.8,2.3l-10.2,-21.1l-11.1,21.4l5.6,-2.7l-9.7,17l6.5,-4.1l-8.2,18.5l13.3,-4.5c0,0 0.1,0 0.2,0.1l0,11.7c0,0 2.4,1.8 5,0l0,-9.2c2.9,1.4 5.9,2.9 6.1,2.9c0.4,0.1 -1.4,-4.4 -1.4,-4.4l9.9,3.7z" id="svg_71" transform="rotate(-1.700767993927002 22.45000076294041,387.00000000000006) " fill="#fdf9ce"/>
  <g id="svg_87" stroke="null">
   <g id="svg_73" stroke="null">
    <polygon class="st6" points="852.1551513671875,426.5999755859375 847.2999877929688,400.8372802734375 870.134521484375,375.89996337890625 891.2999877929688,402.83575439453125 885.9896240234375,426.5999755859375 " id="svg_72" stroke="null" fill="#fdf9ce"/>
   </g>
   <g id="svg_75" stroke="null">
    <polygon class="st6" points="880.4517211914062,390.71466064453125 881.9689331054688,383.32904052734375 889.55517578125,383.980712890625 885.913818359375,397.44854736328125 880.4517211914062,394.58123779296875 " id="svg_74" stroke="null" fill="#fdf9ce"/>
   </g>
   <g id="svg_77" stroke="null">
    <rect x="973.45524" y="-74.15774" transform="matrix(0.7582413690388203,-0.013512919981652499,0.023595910025185348,0.43423012444376946,120.68227878955094,454.4226512152692) " class="st0" width="9.5" height="16" id="svg_76" stroke="null" fill="#fdf9ce"/>
   </g>
   <g id="svg_79" stroke="null">
    <rect x="-361.46693" y="1220.54798" transform="matrix(-0.7582413690388203,-0.013511638361975551,0.02359367209418118,-0.43423012444376946,577.2236174325952,941.1739844676991) " class="st0" width="9.5" height="16" id="svg_78" stroke="null" fill="#fdf9ce"/>
   </g>
   <g id="svg_86" stroke="null">
    <g id="svg_81" stroke="null">
     <path class="st0" d="m866.11379,390.62775c0,0 0.6069,-1.69434 3.94483,-1.69434c3.26207,0 3.33793,1.69434 3.33793,1.69434l0,6.51671l-7.28276,0l0,-6.51671z" id="svg_80" stroke="null" fill="#fdf9ce"/>
    </g>
    <g id="svg_83" stroke="null">
     <rect x="869.60345" y="388.9334" class="st6" width="0.68276" height="8.2545" id="svg_82" stroke="null" fill="#fdf9ce"/>
    </g>
    <g id="svg_85" stroke="null">
     <rect x="866.11379" y="393.06065" class="st6" width="7.28276" height="0.391" id="svg_84" stroke="null" fill="#fdf9ce"/>
    </g>
   </g>
  </g>
  <path class="st6" d="m628,413.37216l-8.14622,-15.61202l5.81873,2.93265l-7.17644,-14.57697l3.6852,1.98384l-9.89184,-18.19965l-10.76466,18.45842l5.43082,-2.32887l-9.40695,14.66323l6.30363,-3.53642l-7.95227,15.95704l12.89819,-3.88145c0,0 0.09698,0 0.19396,0.08626l0,10.09175c0,0 2.32749,1.55258 4.84894,0l0,-7.93539c2.81238,1.20756 5.72175,2.50138 5.91571,2.50138c0.38791,0.08625 -1.35771,-3.79519 -1.35771,-3.79519l9.60091,3.1914l0,-0.00001z" id="svg_88" stroke="null" fill="#fdf9ce"/>
  <path class="st6" d="m807,415.84638l-5.60845,-12.19106l4.00604,2.29003l-4.94079,-11.38281l2.53716,1.54914l-6.81027,-14.21167l-7.41118,14.41373l3.73897,-1.81856l-6.47643,11.45017l4.33988,-2.76151l-5.47493,12.46047l8.88006,-3.03093c0,0 0.06677,0 0.13354,0.06736l0,7.88041c0,0 1.60241,1.21237 3.33837,0l0,-6.19657c1.93625,0.94295 3.93927,1.95327 4.07281,1.95327c0.26707,0.06735 -0.93475,-2.96357 -0.93475,-2.96357l6.60997,2.4921z" id="svg_89" stroke="null" fill="#fdf9ce"/>
  <path class="st6" d="m372,396.88763l-14.23685,-23.69794l10.16918,4.45155l-12.542,-22.1268l6.44049,3.01133l-17.28761,-27.62577l-18.813,28.01857l9.49125,-3.53506l-16.44018,22.25774l11.01662,-5.36803l-13.89789,24.22165l22.54169,-5.89176c0,0 0.16949,0 0.33898,0.13094l0,15.31855c0,0 4.06767,2.3567 8.47431,0l0,-12.04537c4.91509,1.83299 9.99969,3.79692 10.33867,3.79692c0.67794,0.13092 -2.37282,-5.76083 -2.37282,-5.76083l16.77916,4.84432l0,-0.00001z" id="svg_92" stroke="null" fill="#fdf9ce"/>
  <path class="st6" d="m80,397.17628l-7.63867,-13.74604l5.45619,2.58213l-6.72931,-12.8347l3.45559,1.74673l-9.27553,-16.02439l-10.09397,16.25223l5.09245,-2.05052l-8.82085,12.91065l5.91088,-3.11374l-7.4568,14.04982l12.09457,-3.41753c0,0 0.09094,0 0.18188,0.07595l0,8.88556c0,0 2.18248,1.36701 4.54683,0l0,-6.98694c2.63715,1.06323 5.36526,2.20241 5.54713,2.20241c0.36374,0.07594 -1.27312,-3.34158 -1.27312,-3.34158l9.00272,2.80996l0.00001,0z" id="svg_94" stroke="null" fill="#fdf9ce"/>
  <path stroke="null" id="svg_90" d="m590.83754,334.22559l-0.88692,-2.40959c-0.49608,-1.32943 -1.8941,-1.97752 -3.12678,-1.44575l-4.23919,1.91105l0,-4.81918c0,-1.42913 -1.08235,-2.59238 -2.40521,-2.59238l-2.40521,0c-1.32287,0 -2.40521,1.16325 -2.40521,2.59238l0,7.79377c0,0.08309 0.0451,0.16618 0.0451,0.24927l-8.47837,3.82211c-0.88692,-1.66178 -1.99933,-3.14077 -3.30717,-4.42035c2.04443,-2.75856 3.30717,-6.21508 3.30717,-10.0538c0,-8.80746 -6.46401,-15.95313 -14.43128,-15.95313s-14.43128,7.14567 -14.43128,15.95313c0,3.83872 1.27777,7.29524 3.30717,10.0538c-1.30783,1.27957 -2.40521,2.75856 -3.30717,4.42035l-8.47837,-3.82211c0.01503,-0.08309 0.0451,-0.16618 0.0451,-0.24927l0,-7.79377c0.03007,-1.42913 -1.05228,-2.59238 -2.37515,-2.59238l-2.40521,0c-1.32287,0 -2.40521,1.16325 -2.40521,2.59238l0,4.81918l-4.22415,-1.91105c-1.23267,-0.53177 -2.6307,0.11632 -3.12678,1.44575l-0.88692,2.40959c-0.49608,1.32943 0.10523,2.84165 1.3379,3.37342l20.32405,9.17305c-0.06013,0.66471 -0.18039,1.32943 -0.18039,2.02738c0,1.6784 0.25555,3.2571 0.63137,4.80256c-4.11893,4.56991 -6.65943,10.85145 -6.65943,17.79772c0,8.97364 4.26925,16.76741 10.64307,21.23761c1.39803,0.98045 3.05161,1.36266 4.7052,1.36266l14.91232,0c1.99933,0 3.95357,-0.68133 5.59212,-1.94429c6.99015,-5.36757 11.18424,-14.85636 9.45549,-25.35884c-0.82679,-5.01859 -3.08168,-9.57188 -6.25355,-13.1281c0.37581,-1.52884 0.63137,-3.10754 0.63137,-4.76932c0,-0.69795 -0.12026,-1.34605 -0.18039,-2.02738l20.32405,-9.17305c1.21764,-0.51515 1.81894,-2.02738 1.3379,-3.37342zm-43.12847,-9.35585c-1.32287,0 -2.40521,-1.19649 -2.40521,-2.65886s1.08235,-2.65886 2.40521,-2.65886s2.40521,1.19649 2.40521,2.65886s-1.08235,2.65886 -2.40521,2.65886zm4.81043,45.20055c-1.32287,0 -2.40521,-1.19649 -2.40521,-2.65886s1.08235,-2.65886 2.40521,-2.65886s2.40521,1.19649 2.40521,2.65886s-1.08235,2.65886 -2.40521,2.65886zm0,-10.63542c-1.32287,0 -2.40521,-1.19649 -2.40521,-2.65886s1.08235,-2.65886 2.40521,-2.65886s2.40521,1.19649 2.40521,2.65886s-1.08235,2.65886 -2.40521,2.65886zm0,-10.63542c-1.32287,0 -2.40521,-1.19649 -2.40521,-2.65886s1.08235,-2.65886 2.40521,-2.65886s2.40521,1.19649 2.40521,2.65886s-1.08235,2.65886 -2.40521,2.65886zm0,-14.62371s-2.40521,-3.85534 -2.40521,-5.31771s1.08235,-2.65886 2.40521,-2.65886s2.40521,1.19649 2.40521,2.65886s-2.40521,5.31771 -2.40521,5.31771zm4.81043,-9.306c-1.32287,0 -2.40521,-1.19649 -2.40521,-2.65886s1.08235,-2.65886 2.40521,-2.65886s2.40521,1.19649 2.40521,2.65886s-1.08235,2.65886 -2.40521,2.65886z" fill="#fdf9ce"/>
  <path d="m898.44073,421.09541c-80.5168,-17.32647 -159.39039,6.73808 -216.08078,7.70065c-81.3384,0.96258 -98.1812,-53.90459 -184.85999,-61.60524c-64.4956,-5.77549 -112.96999,48.12909 -194.30839,25.02713c-67.782,-18.28906 -177.46558,-21.1768 -319.19158,20.21422l0,62.56783l1026.99993,0c0,0 -31.2208,-36.57812 -112.55919,-53.9046l0,0.00001z" fill="#fdf9ce" id="svg_70" stroke="null"/>
  <path class="st6" d="m310,391.17628l-8.14622,-13.74604l5.81873,2.58213l-7.17644,-12.8347l3.6852,1.74673l-9.89184,-16.02439l-10.76466,16.25223l5.43082,-2.05052l-9.40695,12.91065l6.30363,-3.11374l-7.95227,14.04982l12.89819,-3.41753c0,0 0.09698,0 0.19396,0.07595l0,8.88556c0,0 2.32749,1.36701 4.84894,0l0,-6.98694c2.81238,1.06323 5.72175,2.20241 5.91571,2.20241c0.38791,0.07594 -1.35771,-3.34158 -1.35771,-3.34158l9.60091,2.80996z" id="svg_93" stroke="null" fill="#fdf9ce"/>
 </g>
</svg>