<svg width="1200" height="320" xmlns="http://www.w3.org/2000/svg">
 <g>
  <title>background</title>
  <rect x="-1" y="-1" width="1202" height="322" id="canvas_background" fill="none"/>
 </g>
 <defs>
  <filter id="svg_113_blur">
   <feGaussianBlur stdDeviation="0.1" in="SourceGraphic"/>
  </filter>
 </defs>
 <g>
  <title>Layer 1</title>
  <g stroke="null" id="svg_4">
   <g stroke="null" id="svg_5">
    <polygon stroke="null" fill="#fdf9ce" id="svg_6" points="408.8931579589844,286.5999755859375 398.29998779296875,235.43020629882812 448.1206970214844,185.89996337890625 494.29998779296875,239.39959716796875 482.7137756347656,286.5999755859375 " class="st6"/>
   </g>
   <g stroke="null" id="svg_7">
    <polygon stroke="null" fill="#fdf9ce" id="svg_8" points="470.63104248046875,215.32476806640625 473.94140625,200.655517578125 490.49310302734375,201.94989013671875 482.5483093261719,228.69964599609375 470.63104248046875,223.0045166015625 " class="st6"/>
   </g>
   <g stroke="null" id="svg_9">
    <rect stroke="null" fill="#fdf9ce" id="svg_10" height="16" width="9.5" class="st0" transform="matrix(1.6543448513293775,-0.02683926634093232,0.051481986945766445,0.8624648099024187,-273.27578536791646,20.576583801251218) " y="280.82895" x="410.06157"/>
   </g>
   <g stroke="null" id="svg_11">
    <rect stroke="null" fill="#fdf9ce" id="svg_12" height="16" width="9.5" class="st0" transform="matrix(-1.6543448513293775,-0.026836720796971126,0.05147710418707568,-0.8624648099024187,722.8144358245302,987.358648129606) " y="831.21887" x="178.76533"/>
   </g>
   <g stroke="null" id="svg_13">
    <g stroke="null" id="svg_14">
     <path stroke="null" fill="#fdf9ce" id="svg_15" d="m439.34829,215.15219c0,0 1.32414,-3.3653 8.6069,-3.3653c7.11724,0 7.28276,3.3653 7.28276,3.3653l0,12.94345l-15.88966,0l0,-12.94345z" class="st0"/>
    </g>
    <g stroke="null" id="svg_16">
     <rect stroke="null" fill="#fdf9ce" id="svg_17" height="16.39503" width="1.48966" class="st6" y="211.78689" x="446.96208"/>
    </g>
    <g stroke="null" id="svg_18">
     <rect stroke="null" fill="#fdf9ce" id="svg_19" height="0.77661" width="15.88966" class="st6" y="219.9844" x="439.34829"/>
    </g>
   </g>
  </g>
  <g stroke="null" id="svg_52">
   <g stroke="null" id="svg_53">
    <polygon stroke="null" fill="#fdf9ce" id="svg_54" points="843.8009033203125,255.5 828.5167236328125,255.5 828.5167236328125,244.20001220703125 816.7423095703125,244.20001220703125 816.7423095703125,255.5 806.0999755859375,255.5 768.5122680664062,255.5 754.7000122070312,279.29998779296875 761.6061401367188,279.29998779296875 761.6061401367188,306.9000244140625 806.0999755859375,306.9000244140625 850.5938720703125,306.9000244140625 850.5938720703125,279.29998779296875 857.5,279.29998779296875 " class="st6"/>
   </g>
   <g stroke="null" id="svg_55">
    <g stroke="null" id="svg_56">
     <rect stroke="null" fill="#fdf9ce" id="svg_57" height="14.3" width="16.18987" class="st0" y="279.2" x="777.00352"/>
    </g>
    <g stroke="null" id="svg_58">
     <rect stroke="null" fill="#fdf9ce" id="svg_59" height="14.3" width="1.01894" class="st6" y="279.2" x="784.58899"/>
    </g>
    <g stroke="null" id="svg_60">
     <rect stroke="null" fill="#fdf9ce" id="svg_61" height="0.9" width="16.18987" class="st6" y="285.9" x="777.00352"/>
    </g>
   </g>
   <g stroke="null" id="svg_62">
    <g stroke="null" id="svg_63">
     <rect stroke="null" fill="#fdf9ce" id="svg_64" height="14.3" width="16.18987" class="st0" y="279.2" x="815.61013"/>
    </g>
    <g stroke="null" id="svg_65">
     <rect stroke="null" fill="#fdf9ce" id="svg_66" height="14.3" width="1.01894" class="st6" y="279.2" x="823.1956"/>
    </g>
    <g stroke="null" id="svg_67">
     <rect stroke="null" fill="#fdf9ce" id="svg_68" height="0.9" width="16.18987" class="st6" y="285.9" x="815.61013"/>
    </g>
   </g>
  </g>
  <path stroke="null" fill="#fdf9ce" id="svg_69" d="m643,268.84638l-6.87734,-12.19106l4.91238,2.29003l-6.05861,-11.38281l3.11118,1.54914l-8.35105,-14.21167l-9.08791,14.41374l4.5849,-1.81855l-7.94169,11.45017l5.32176,-2.76151l-6.7136,12.46047l10.88912,-3.03092c0,0 0.08187,0 0.16375,0.06735l0,7.88041c0,0 1.96495,1.21237 4.09365,0l0,-6.19656c2.37432,0.94295 4.83051,1.95326 4.99426,1.95326c0.3275,0.06735 -1.14622,-2.96357 -1.14622,-2.96357l8.10544,2.49209l-0.00002,0z" class="st6"/>
  <path fill="#fdf9ce" transform="rotate(-1.700767993927002 23.449998855592693,263.99999999999994) " id="svg_71" d="m40,285.3l-8.4,-18.1l6,3.4l-7.4,-16.9l3.8,2.3l-10.2,-21.1l-11.1,21.4l5.6,-2.7l-9.7,17l6.5,-4.1l-8.2,18.5l13.3,-4.5c0,0 0.1,0 0.2,0.1l0,11.7c0,0 2.4,1.8 5,0l0,-9.2c2.9,1.4 5.9,2.9 6.1,2.9c0.4,0.1 -1.4,-4.4 -1.4,-4.4l9.9,3.7z" class="st6"/>
  <g stroke="null" id="svg_87">
   <g stroke="null" id="svg_73">
    <polygon fill="#fdf9ce" stroke="null" id="svg_72" points="972.1551513671875,300.5999755859375 967.2999877929688,274.8372802734375 990.134521484375,249.89996337890625 1011.2999877929688,276.83575439453125 1005.9896240234375,300.5999755859375 " class="st6"/>
   </g>
   <g stroke="null" id="svg_75">
    <polygon fill="#fdf9ce" stroke="null" id="svg_74" points="1000.4517211914062,264.71466064453125 1001.9689331054688,257.32904052734375 1009.55517578125,257.980712890625 1005.913818359375,271.44854736328125 1000.4517211914062,268.58123779296875 " class="st6"/>
   </g>
   <g stroke="null" id="svg_77">
    <rect fill="#fdf9ce" stroke="null" id="svg_76" height="16" width="9.5" class="st0" transform="matrix(0.7582413690388203,-0.013512919981652499,0.023595910025185348,0.43423012444376946,120.68227878955094,454.4226512152692) " y="-359.12553" x="1140.58418"/>
   </g>
   <g stroke="null" id="svg_79">
    <rect fill="#fdf9ce" stroke="null" id="svg_78" height="16" width="9.5" class="st0" transform="matrix(-0.7582413690388203,-0.013511638361975551,0.02359367209418118,-0.43423012444376946,577.2236174325952,941.1739844676991) " y="1515.35576" x="-510.55455"/>
   </g>
   <g stroke="null" id="svg_86">
    <g stroke="null" id="svg_81">
     <path fill="#fdf9ce" stroke="null" id="svg_80" d="m986.11379,264.62775c0,0 0.6069,-1.69434 3.94483,-1.69434c3.26207,0 3.33793,1.69434 3.33793,1.69434l0,6.51671l-7.28276,0l0,-6.51671z" class="st0"/>
    </g>
    <g stroke="null" id="svg_83">
     <rect fill="#fdf9ce" stroke="null" id="svg_82" height="8.2545" width="0.68276" class="st6" y="262.9334" x="989.60345"/>
    </g>
    <g stroke="null" id="svg_85">
     <rect fill="#fdf9ce" stroke="null" id="svg_84" height="0.391" width="7.28276" class="st6" y="267.06065" x="986.11379"/>
    </g>
   </g>
  </g>
  <path fill="#fdf9ce" stroke="null" id="svg_88" d="m749,287.37216l-8.14622,-15.61202l5.81873,2.93265l-7.17644,-14.57697l3.6852,1.98384l-9.89184,-18.19965l-10.76466,18.45842l5.43082,-2.32887l-9.40695,14.66323l6.30363,-3.53642l-7.95227,15.95704l12.89819,-3.88145c0,0 0.09698,0 0.19396,0.08626l0,10.09175c0,0 2.32749,1.55258 4.84894,0l0,-7.93539c2.81238,1.20756 5.72175,2.50138 5.91571,2.50138c0.38791,0.08625 -1.35771,-3.79519 -1.35771,-3.79519l9.60091,3.1914l0,-0.00001z" class="st6"/>
  <path fill="#fdf9ce" stroke="null" id="svg_89" d="m933,293.84638l-5.60845,-12.19106l4.00604,2.29003l-4.94079,-11.38281l2.53716,1.54914l-6.81027,-14.21167l-7.41118,14.41373l3.73897,-1.81856l-6.47643,11.45017l4.33988,-2.76151l-5.47493,12.46047l8.88006,-3.03093c0,0 0.06677,0 0.13354,0.06736l0,7.88041c0,0 1.60241,1.21237 3.33837,0l0,-6.19657c1.93625,0.94295 3.93927,1.95327 4.07281,1.95327c0.26707,0.06735 -0.93475,-2.96357 -0.93475,-2.96357l6.60997,2.4921z" class="st6"/>
  <path stroke="null" fill="#fdf9ce" id="svg_92" d="m393,280.57836l-7.38489,-12.81306l5.27492,2.40688l-6.50574,-11.96357l3.34079,1.62817l-8.96737,-14.93677l-9.75861,15.14915l4.92327,-1.91135l-8.52779,12.03437l5.7145,-2.9024l-7.20906,13.09622l11.69274,-3.18557c0,0 0.08792,0 0.17583,0.0708l0,8.28247c0,0 2.10997,1.27423 4.39576,0l0,-6.51272c2.54954,0.99107 5.187,2.05293 5.36284,2.05293c0.35166,0.07079 -1.23082,-3.11478 -1.23082,-3.11478l8.70362,2.61924l0,-0.00001z" class="st6"/>
  <path stroke="null" fill="#fdf9ce" id="svg_94" d="m87,281.11442l-6.36979,-11.56906l4.54985,2.17319l-5.61149,-10.80205l2.88157,1.4701l-7.73475,-13.48659l-8.41723,13.67834l4.24653,-1.72578l-7.35559,10.86597l4.92901,-2.62061l-6.21813,11.82473l10.08551,-2.87629c0,0 0.07583,0 0.15167,0.06392l0,7.47834c0,0 1.81994,1.15051 3.79154,0l0,-5.88041c2.19909,0.89484 4.47402,1.85361 4.62568,1.85361c0.30332,0.06391 -1.06164,-2.81237 -1.06164,-2.81237l7.50725,2.36494l0.00001,0z" class="st6"/>
  <path stroke="null" fill="#fdf9ce" d="m612.82461,211.30878l-0.95607,-2.60779c-0.53476,-1.43878 -2.04177,-2.14018 -3.37055,-1.56467l-4.56968,2.06825l0,-5.21559c0,-1.54668 -1.16673,-2.80562 -2.59272,-2.80562l-2.59272,0c-1.426,0 -2.59272,1.25893 -2.59272,2.80562l0,8.43486c0,0.08992 0.04862,0.17985 0.04862,0.26977l-9.13936,4.1365c-0.95607,-1.79847 -2.1552,-3.39912 -3.565,-4.78395c2.20382,-2.98547 3.565,-6.72631 3.565,-10.88079c0,-9.53193 -6.96796,-17.26537 -15.55637,-17.26537s-15.55637,7.73345 -15.55637,17.26537c0,4.15448 1.37739,7.89532 3.565,10.88079c-1.40979,1.38482 -2.59272,2.98547 -3.565,4.78395l-9.13936,-4.1365c0.0162,-0.08992 0.04862,-0.17985 0.04862,-0.26977l0,-8.43486c0.03241,-1.54668 -1.13432,-2.80562 -2.56032,-2.80562l-2.59272,0c-1.426,0 -2.59272,1.25893 -2.59272,2.80562l0,5.21559l-4.55347,-2.06825c-1.32877,-0.57551 -2.83579,0.12589 -3.37055,1.56467l-0.95607,2.60779c-0.53476,1.43878 0.11343,3.07539 1.4422,3.6509l21.90855,9.92759c-0.06482,0.71939 -0.19445,1.43878 -0.19445,2.19414c0,1.81646 0.27547,3.52502 0.68059,5.1976c-4.44005,4.94581 -7.17861,11.74405 -7.17861,19.26169c0,9.71178 4.60209,18.14663 11.47282,22.98454c1.50702,1.0611 3.28952,1.47475 5.07203,1.47475l16.07491,0c2.1552,0 4.2618,-0.73737 6.02809,-2.10422c7.53511,-5.80909 12.05618,-16.07839 10.19266,-27.44476c-0.89125,-5.4314 -3.32193,-10.35923 -6.74109,-14.20797c0.40511,-1.6546 0.68059,-3.36315 0.68059,-5.16163c0,-0.75536 -0.12964,-1.45677 -0.19445,-2.19414l21.90855,-9.92759c1.31257,-0.55752 1.96075,-2.19414 1.4422,-3.6509l-0.00004,0zm-46.49084,-10.12543c-1.426,0 -2.59272,-1.29491 -2.59272,-2.87757s1.16673,-2.87757 2.59272,-2.87757s2.59272,1.29491 2.59272,2.87757s-1.16673,2.87757 -2.59272,2.87757zm5.18546,48.91858c-1.426,0 -2.59272,-1.29491 -2.59272,-2.87757s1.16673,-2.87757 2.59272,-2.87757s2.59272,1.29491 2.59272,2.87757s-1.16673,2.87757 -2.59272,2.87757zm0,-11.51025c-1.426,0 -2.59272,-1.29491 -2.59272,-2.87757s1.16673,-2.87757 2.59272,-2.87757s2.59272,1.29491 2.59272,2.87757s-1.16673,2.87757 -2.59272,2.87757zm0,-11.51025c-1.426,0 -2.59272,-1.29491 -2.59272,-2.87757s1.16673,-2.87757 2.59272,-2.87757s2.59272,1.29491 2.59272,2.87757s-1.16673,2.87757 -2.59272,2.87757zm0,-15.8266s-2.59272,-4.17247 -2.59272,-5.75512s1.16673,-2.87757 2.59272,-2.87757s2.59272,1.29491 2.59272,2.87757s-2.59272,5.75512 -2.59272,5.75512zm5.18546,-10.07148c-1.426,0 -2.59272,-1.29491 -2.59272,-2.87757s1.16673,-2.87757 2.59272,-2.87757s2.59272,1.29491 2.59272,2.87757s-1.16673,2.87757 -2.59272,2.87757z" id="svg_90"/>
  <path stroke="null" id="svg_70" fill="#fdf9ce" d="m1065.80874,296.4967c-93.8448,-9.4832 -185.77439,3.68792 -251.84878,4.21475c-94.8024,0.52684 -114.4332,-29.5033 -215.45999,-33.71805c-75.1716,-3.16107 -131.66999,26.34223 -226.47239,13.69796c-79.002,-10.01005 -206.84158,-11.59058 -372.02758,11.06374l0,34.2449l1196.99994,0c0,0 -36.3888,-20.0201 -131.19119,-29.50331l0,0.00001z"/>
  <path stroke="null" fill="#fdf9ce" id="svg_93" d="m362,276.32061l-5.1009,-8.77009l3.6435,1.64742l-4.49366,-8.18865l2.30756,1.11443l-6.19396,-10.2237l-6.74049,10.36907l3.40061,-1.30825l-5.89033,8.23711l3.94713,-1.98659l-4.97946,8.96391l8.07644,-2.18041c0,0 0.06073,0 0.12145,0.04846l0,5.66907c0,0 1.4574,0.87216 3.03625,0l0,-4.45773c1.76102,0.67835 3.58278,1.40516 3.70423,1.40516c0.2429,0.04845 -0.85015,-2.13196 -0.85015,-2.13196l6.01179,1.79278z" class="st6"/>
  <path stroke="null" fill="#fdf9ce" id="svg_91" d="m955,291.72267l-4.08579,-7.8371l2.91843,1.47216l-3.5994,-7.31752l1.84834,0.99588l-4.96133,-9.13607l-5.39909,9.26596l2.72386,-1.16907l-4.71812,7.36082l3.16163,-1.77526l-3.98852,8.0103l6.46918,-1.94845c0,0 0.04864,0 0.09728,0.0433l0,5.06597c0,0 1.16737,0.77938 2.43202,0l0,-3.98351c1.41057,0.60618 2.86978,1.25567 2.96707,1.25567c0.19456,0.0433 -0.68097,-1.90515 -0.68097,-1.90515l4.81541,1.60206z" class="st6"/>
  <path stroke="null" fill="#fdf9ce" id="svg_95" d="m1043,292.85672l-5.1009,-7.52613l3.6435,1.41375l-4.49365,-7.02715l2.30755,0.95636l-6.19395,-8.77355l-6.74048,8.8983l3.40061,-1.12268l-5.89033,7.06874l3.94713,-1.70481l-4.97945,7.69245l8.07643,-1.87114c0,0 0.06073,0 0.12145,0.04158l0,4.86495c0,0 1.4574,0.74845 3.03625,0l0,-3.82544c1.76102,0.58213 3.58277,1.20585 3.70423,1.20585c0.2429,0.04158 -0.85015,-1.82956 -0.85015,-1.82956l6.01178,1.53849l0,0z" class="st6"/>
  <g stroke="null" filter="url(#svg_113_blur)" id="svg_113">
   <g stroke="null" id="svg_99">
    <polygon stroke="null" fill="#fdf9ce" id="svg_98" points="871.0586547851562,298.5999755859375 868.2999877929688,286.55706787109375 881.274169921875,274.89996337890625 893.2999877929688,287.4912414550781 890.28271484375,298.5999755859375 " class="st6"/>
   </g>
   <g stroke="null" id="svg_101">
    <polygon stroke="null" fill="#fdf9ce" id="svg_100" points="887.13623046875,281.8251647949219 887.998291015625,278.37274169921875 892.30859375,278.6773681640625 890.2396850585938,284.97296142578125 887.13623046875,283.63262939453125 " class="st6"/>
   </g>
   <g stroke="null" id="svg_103">
    <rect stroke="null" fill="#fdf9ce" id="svg_102" height="16" width="9.5" class="st0" transform="matrix(0.430818948235735,-0.0063166920004135005,0.013406766703591628,0.20298336385746046,409.91331356560084,372.9205227273581) " y="-372.64701" x="1088.43972"/>
   </g>
   <g stroke="null" id="svg_105">
    <rect stroke="null" fill="#fdf9ce" id="svg_104" height="16" width="9.5" class="st0" transform="matrix(-0.430818948235735,-0.0063160928999398845,0.013405495151918495,-0.20298336385746046,669.3117945396202,600.4552270785215) " y="1525.60898" x="-457.67027"/>
   </g>
   <g stroke="null" id="svg_112">
    <g stroke="null" id="svg_107">
     <path stroke="null" fill="#fdf9ce" id="svg_106" d="m878.98965,281.78455c0,0 0.34483,-0.79203 2.24138,-0.79203c1.85345,0 1.89655,0.79203 1.89655,0.79203l0,3.04627l-4.13793,0l0,-3.04627z" class="st0"/>
    </g>
    <g stroke="null" id="svg_109">
     <rect stroke="null" fill="#fdf9ce" id="svg_108" height="3.85861" width="0.38793" class="st6" y="280.99252" x="880.97241"/>
    </g>
    <g stroke="null" id="svg_111">
     <rect stroke="null" fill="#fdf9ce" id="svg_110" height="0.18278" width="4.13793" class="st6" y="282.92183" x="878.98965"/>
    </g>
   </g>
  </g>
  <g stroke="null" filter="url(#svg_113_blur)" id="svg_129">
   <g stroke="null" id="svg_115">
    <polygon stroke="null" fill="#fdf9ce" id="svg_114" points="249.82415771484375,279.5999755859375 245.29998779296875,259.42681884765625 266.57763671875,239.89996337890625 286.29998779296875,260.99163818359375 281.3516845703125,279.5999755859375 " class="st6"/>
   </g>
   <g stroke="null" id="svg_117">
    <polygon stroke="null" fill="#fdf9ce" id="svg_116" points="276.1914367675781,251.5003662109375 277.605224609375,245.71725463867188 284.67413330078125,246.2275390625 281.28106689453125,256.7732849121094 276.1914367675781,254.52810668945312 " class="st6"/>
   </g>
   <g stroke="null" id="svg_119">
    <rect stroke="null" fill="#fdf9ce" id="svg_118" height="16" width="9.5" class="st0" transform="matrix(0.7065430459491007,-0.01058112380147353,0.021987096486530307,0.34001849424900543,726.3721952665894,350.4450462938278) " y="-269.26166" x="-659.64835"/>
   </g>
   <g stroke="null" id="svg_121">
    <rect stroke="null" fill="#fdf9ce" id="svg_120" height="16" width="9.5" class="st0" transform="matrix(-0.7065430459491007,-0.010580120245137327,0.021985011141872422,-0.34001849424900543,1151.7856865080855,731.5896193890069) " y="1313.73563" x="1280.6078"/>
   </g>
   <g stroke="null" id="svg_128">
    <g stroke="null" id="svg_123">
     <path stroke="null" fill="#fdf9ce" id="svg_122" d="m262.83103,251.43236c0,0 0.56553,-1.32673 3.67586,-1.32673c3.03966,0 3.11036,1.32673 3.11036,1.32673l0,5.10284l-6.78622,0l0,-5.10284z" class="st0"/>
    </g>
    <g stroke="null" id="svg_125">
     <rect stroke="null" fill="#fdf9ce" id="svg_124" height="6.46358" width="0.63621" class="st6" y="250.10563" x="266.08276"/>
    </g>
    <g stroke="null" id="svg_127">
     <rect stroke="null" fill="#fdf9ce" id="svg_126" height="0.30617" width="6.78621" class="st6" y="253.33742" x="262.83103"/>
    </g>
   </g>
  </g>
  <g stroke="null" fill-rule="nonzero" id="svg_1">
   <path stroke="null" fill="#fdf9ce" d="m143.43383,29.5067c-0.06766,0.25238 -5.53592,17.15565 -5.56667,17.36214c17.2782,-12.04509 14.63326,-11.95905 31.92992,-0.10324c-6.9568,-19.06565 -7.66416,-16.66811 9.76781,-28.3461c-21.60236,0.28679 -19.38799,1.66337 -25.89577,-17.41949l-6.3294,17.14991c-22.99864,0.53343 -22.1375,-1.53718 -3.90589,11.35679z" id="svg_2"/>;
   <path stroke="null" fill="#fdf9ce" d="m259.23898,237.07223c13.39691,-3.7684 -75.38068,5.36293 -83.00179,-23.95252c2.68799,23.68866 109.06364,16.9721 69.98625,6.41257c-7.07982,-3.20629 2.31893,-3.02848 5.03153,-2.90803c9.94004,-1.45688 -12.9848,-5.33425 -6.76612,-10.15228c3.55529,-4.78936 -10.45672,-5.16218 -13.15702,-6.59039c-14.71322,-5.88489 -29.99849,-13.70272 -45.05003,-21.18215c17.78874,1.4913 32.16366,13.63963 49.82322,15.81922c1.87606,0.57358 4.61942,0.67108 1.97447,-1.54292c-16.13411,-11.7583 23.32465,3.89458 16.38016,-2.04193c-39.09585,-18.55517 17.83794,-0.83742 -30.52749,-24.44005c-5.80656,-3.44145 4.37337,-2.60403 3.0263,-5.65545c-16.1218,-11.68373 -40.75047,-9.42385 -56.67545,-23.13804c14.79934,3.57337 69.53722,25.99445 35.34373,-3.26365c-4.92081,-7.03777 16.77382,5.62677 11.98833,-0.86037c-15.37754,-24.03282 -34.90701,-15.24564 -61.31947,-34.9881c17.33972,4.65743 51.31177,17.48258 53.88289,11.97052c0.30755,-0.03442 -14.33186,-3.02848 -17.49964,-6.88291c5.85577,0.53916 8.13779,0.70549 10.03231,0.83168c1.64232,0 1.37167,-0.49327 -0.84885,-1.22745c-2.82331,-1.38232 -23.08476,-6.43552 -4.8839,-4.66891c3.43227,0.24091 1.35938,-1.47982 0.35061,-2.57535c1.30402,0.02868 1.55621,-0.12619 0,-0.52769c-1.03337,0.31547 -12.48656,-13.76581 -13.15087,-14.02966c2.51577,1.41099 5.73274,-0.49328 7.81178,0.39577c0.12302,-3.40704 -9.89083,-10.53085 -12.70184,-14.12717c-2.81717,-2.01325 -1.31016,-1.92147 1.37167,-1.72072c-0.75042,1.61175 -20.71661,-13.32416 -9.70015,-12.52689c-0.652,-0.32693 -17.83794,-11.57475 -16.0726,-12.83088c-5.72659,4.46242 -15.63588,9.56723 -19.62173,14.81546c0.6151,0.52196 2.76796,-1.04391 3.60449,-1.05538l-2.36199,2.0534c0.27064,0.44166 -6.83992,8.03005 -8.32847,9.05676c-2.84792,3.17761 2.75565,-0.34988 3.3646,0.83168c-1.23021,2.71875 -6.56313,5.49485 -8.45765,5.92504c-2.46041,0.25237 1.60542,0.40151 2.6757,0.19502l-4.48409,4.41079c-3.49993,4.40506 11.07182,-4.23872 5.36984,1.91001c-1.97448,1.22171 -15.85732,7.08366 -6.04645,6.71657c-3.37076,4.18711 -9.22653,7.56547 0.9288,6.1602c6.15101,-2.86787 -10.64126,6.06843 -8.4884,5.11056c10.3337,2.07061 20.29835,-12.29172 33.21548,-9.3837c-17.33355,9.79668 -35.30067,14.7409 -49.94624,26.38448c-4.01046,3.80281 3.48762,2.2943 3.6906,4.66317c0.44902,0.75711 -13.18162,13.45608 -13.92589,14.19026c2.04213,7.45648 25.26222,-12.09671 32.21286,-13.54212c0.54129,10.9725 -42.56502,27.6406 -29.27268,29.63091c1.35322,-0.20075 11.2133,-2.6786 6.15102,0.57358c-0.86115,0.97508 -18.93898,10.15228 -18.71754,11.32238c9.46642,5.7759 29.61714,-14.37954 43.85674,-9.84256c-21.42399,8.03005 -47.64576,15.98555 -62.38975,29.06881c18.45305,1.68058 -10.19838,8.75277 -10.75198,12.51542c3.40767,0.9636 23.01095,-7.1066 21.63927,-2.47211c-0.69506,1.23893 -5.99724,3.71103 -4.13348,4.96143c18.51456,-6.30934 38.01327,-12.09671 55.61748,-20.8208c-11.07182,10.72586 -23.60144,10.84632 -35.18996,18.89932c-5.62203,7.45648 -16.64465,7.27867 -25.04078,10.12935c-6.3417,4.76068 7.71952,4.88113 -9.73705,11.80991c-6.24944,4.45095 17.22284,-0.50474 6.63079,5.07041c-39.44031,13.52491 55.29148,-12.14259 67.32286,-10.49644c57.74573,-11.25355 -61.02422,16.53619 -80.11082,22.47843c-0.9288,0.90625 -10.14918,3.44146 -8.71599,5.32278c2.14055,1.82397 12.59112,-1.51998 10.8996,2.4377c-18.05938,9.87124 40.98421,-8.03006 23.59529,4.5886c-0.55974,0.79153 -5.41289,3.90605 -2.46041,4.1871c42.36204,-14.00671 10.65356,2.59256 28.29467,0.80301c16.41706,-6.30934 4.8347,2.20826 12.03753,4.65743c5.16686,2.03619 20.29835,-9.42385 23.37386,-3.1432c-0.6151,5.89636 4.66246,8.23654 9.54638,4.08386l0,27.17601c-0.51054,-7.02057 -3.3277,-5.08762 -8.82671,-3.88311c1.67922,5.2769 0.15992,11.10442 8.82671,7.53105c-3.58604,5.04173 25.1392,0 25.83426,1.14715l0,-34.22525c3.24159,1.05538 18.65603,12.67602 19.38185,6.0799c0,-1.22171 -4.56406,-11.01265 -0.91651,-9.45253c3.69061,0.97508 18.92052,10.63983 19.92929,4.18711c-0.29525,-1.39379 -2.46041,-6.6248 0.72582,-5.76444c3.6906,0.72844 32.7603,13.46755 22.75875,1.88133c-3.0755,-5.30558 13.43997,1.5888 16.28174,1.51998c1.10104,0.31547 -0.71351,-0.60799 -2.25127,-1.411c2.75565,0.63093 5.18531,1.22745 6.08336,1.4913c2.38044,-0.10324 -20.87655,-8.48892 -9.37415,-7.66871c0.66431,-0.35562 24.94236,2.97112 15.4575,-0.36709c0,0 -4.85316,-1.52572 -9.3926,-2.78758c30.43522,4.67464 3.10626,-2.18533 13.9874,-3.25791zm-46.48322,-39.85203l1.40243,0.21795c-0.6151,0.29826 -3.93665,-0.60225 -1.40243,-0.21795zm-29.27268,-117.3593c0.09681,0.56538 0.33029,1.10281 0.68277,1.5716c-0.63355,-0.7055 -0.81808,-1.23892 -0.68277,-1.5716zm-18.25006,-17.15564c0.6151,0.12618 1.89451,2.19106 2.52191,2.4549c0,0.05735 5.27142,-0.09177 6.15102,1.72072c-5.79426,-0.19502 -8.18085,-0.72844 -8.67293,-4.17563z" id="svg_3"/></g>
  <path stroke="null" fill="#fdf9ce" id="svg_130" d="m536,269.72267l-4.08579,-7.83711l2.91842,1.47216l-3.59939,-7.31751l1.84833,0.99587l-4.96132,-9.13607l-5.3991,9.26597l2.72387,-1.16908l-4.71812,7.36082l3.16163,-1.77525l-3.98852,8.01029l6.46918,-1.94845c0,0 0.04864,0 0.09728,0.0433l0,5.06598c0,0 1.16737,0.77938 2.43203,0l0,-3.98351c1.41057,0.60618 2.86978,1.25567 2.96707,1.25567c0.19456,0.0433 -0.68098,-1.90515 -0.68098,-1.90515l4.81541,1.60207z" class="st6"/>
 </g>
</svg>